<svg xmlns="http://www.w3.org/2000/svg" version="1.0" width="1024" height="1024" preserveAspectRatio="xMidYMid meet" style=""><rect id="backgroundrect" width="100%" height="100%" x="0" y="0" fill="none" stroke="none"/>


<g class="currentLayer" style=""><title>Layer 1</title><g transform="translate(0,1024) scale(0.10000000149011612,-0.10000000149011612) " fill="#023e8a" stroke="none" id="svg_1" class="selected" fill-opacity="1">
<path d="M3185 8880 c-196 -12 -363 -83 -533 -227 -95 -81 -194 -246 -247 -410 l-25 -78 2 -1000 3 -1000 28 -70 c38 -96 55 -129 108 -210 140 -209 375 -360 616 -395 43 -6 89 -13 102 -16 l24 -5 -6 -142 c-3 -78 -13 -182 -22 -232 -15 -85 -78 -298 -95 -320 -4 -5 -11 -21 -15 -35 -4 -14 -25 -60 -46 -103 -21 -42 -37 -77 -36 -77 31 0 284 103 375 152 206 110 351 211 495 345 32 29 69 60 82 69 29 19 39 15 121 -57 100 -87 250 -172 394 -223 154 -56 227 -67 540 -82 162 -7 298 -10 302 -6 4 4 10 81 13 172 7 197 19 300 47 389 27 90 106 254 158 332 58 86 202 228 288 284 87 56 249 136 322 160 30 10 56 19 58 20 1 1 -19 33 -44 71 -113 167 -155 354 -115 506 47 180 151 319 309 413 7 5 -19 777 -28 820 -17 84 -70 236 -111 318 -102 205 -249 363 -444 479 -91 54 -254 121 -355 146 -53 13 -2073 24 -2265 12z m2040 -160 c159 -8 176 -11 269 -44 301 -109 475 -256 603 -511 101 -201 116 -285 117 -677 l1 -296 -68 -62 c-109 -100 -199 -253 -232 -394 -30 -125 -12 -363 34 -469 12 -27 21 -52 21 -56 0 -5 -34 -25 -75 -45 -157 -78 -355 -252 -462 -408 -49 -71 -122 -204 -150 -273 -41 -102 -79 -267 -93 -409 -6 -61 -14 -114 -17 -119 -7 -11 -266 -1 -388 14 -93 12 -265 67 -345 111 -89 50 -245 177 -255 209 -8 23 6 48 63 118 45 56 46 56 111 62 36 4 172 7 302 8 130 0 277 4 327 7 l91 7 31 73 c16 40 30 75 30 78 0 3 -209 6 -465 6 l-465 0 -24 -37 c-71 -113 -295 -350 -471 -498 -106 -90 -326 -245 -347 -245 -12 0 -10 16 22 160 21 94 24 132 24 355 l1 250 -100 6 c-120 8 -241 30 -317 59 -137 51 -304 208 -382 359 -83 160 -79 106 -80 1151 l-1 925 36 87 c54 130 95 194 184 283 59 59 105 93 175 132 117 64 156 73 340 83 206 10 1751 10 1955 0z" id="svg_2" fill="#023e8a" fill-opacity="1" stroke="none"/>
<path d="M4182 8237 l-32 -33 0 -316 c0 -231 -3 -319 -12 -324 -6 -4 -159 -9 -339 -12 l-328 -5 -26 -27 -26 -27 3 -311 3 -312 27 -27 c32 -32 30 -32 413 -41 l270 -7 3 -315 2 -314 38 -39 37 -38 295 3 c265 3 299 5 323 21 16 10 32 30 38 44 5 15 13 163 16 329 l6 303 51 5 c28 3 171 7 318 10 300 5 316 9 335 68 7 23 15 145 19 321 l7 284 -38 41 -37 42 -324 0 c-309 0 -324 1 -334 19 -6 12 -10 135 -10 329 l0 310 -31 26 -31 26 -302 0 -302 0 -32 -33z m275 -375 c28 -18 33 -51 84 -557 11 -110 23 -226 26 -258 3 -32 9 -54 13 -50 4 4 15 40 24 78 36 148 43 162 84 169 20 3 113 6 205 6 165 0 168 0 192 -25 30 -29 31 -37 4 -61 -18 -16 -42 -19 -191 -22 -162 -4 -170 -5 -178 -26 -4 -11 -27 -120 -50 -241 -58 -310 -75 -361 -118 -353 -40 8 -51 47 -72 268 -29 305 -49 505 -58 580 l-7 65 -18 -70 c-10 -38 -28 -101 -40 -140 l-22 -70 -126 -5 c-125 -5 -126 -5 -152 -35 -21 -25 -33 -30 -71 -30 -38 0 -51 5 -81 35 -45 43 -52 71 -31 118 38 82 122 101 192 44 36 -30 44 -32 115 -32 l76 0 12 63 c7 34 21 100 32 147 11 47 26 114 35 150 55 241 75 281 121 252z" id="svg_3" fill="#023e8a" fill-opacity="1" stroke="none"/>
<path d="M5925 8880 c2 -4 36 -26 74 -49 38 -22 96 -63 129 -91 l60 -50 348 0 c372 0 440 -6 557 -44 306 -100 543 -323 657 -619 60 -153 58 -127 64 -987 8 -932 0 -1204 -38 -1322 -56 -179 -145 -325 -269 -447 -44 -43 -67 -47 -67 -12 0 9 -11 45 -24 79 -100 254 -325 464 -596 555 -97 32 -110 35 -225 47 -256 27 -519 -55 -715 -223 -114 -96 -219 -252 -270 -398 -38 -109 -47 -175 -55 -393 l-7 -178 178 6 c99 3 375 8 614 12 443 5 633 15 718 35 222 54 419 166 587 334 215 215 328 457 356 765 6 73 9 455 7 1035 l-4 920 -26 90 c-80 273 -157 414 -313 570 -186 187 -425 312 -655 344 -180 26 -1099 43 -1085 21z" id="svg_4" fill="#023e8a" fill-opacity="1" stroke="none"/>
<path d="M6570 6973 c-58 -12 -152 -64 -194 -108 -128 -131 -158 -335 -76 -502 37 -74 117 -158 181 -190 93 -46 276 -47 364 -1 143 73 235 225 235 388 0 165 -90 309 -239 382 -56 28 -75 32 -155 34 -50 1 -102 0 -116 -3z" id="svg_5" fill="#023e8a" fill-opacity="1" stroke="none"/>
<path d="M713 3471 c-89 -5 -105 -9 -127 -30 -52 -49 -51 -34 -51 -936 0 -785 1 -842 18 -872 22 -40 51 -60 102 -70 56 -11 661 -6 775 7 338 37 630 232 768 514 48 98 68 164 81 276 38 303 -27 555 -196 762 -126 155 -290 260 -496 317 -116 33 -569 49 -874 32z m777 -363 c175 -58 273 -139 353 -291 57 -107 69 -162 69 -312 1 -126 -2 -147 -26 -215 -65 -184 -190 -308 -375 -372 -62 -22 -81 -23 -336 -23 l-270 0 -3 623 -2 624 257 -4 c243 -4 262 -6 333 -30z" id="svg_6" fill="#023e8a" fill-opacity="1" stroke="none"/>
<path d="M3140 2975 c-157 -23 -277 -80 -372 -176 -124 -126 -186 -250 -213 -425 -31 -196 7 -384 109 -534 77 -114 182 -199 309 -250 107 -43 158 -52 297 -53 182 -1 312 37 453 133 69 47 174 166 212 244 62 122 79 195 79 336 1 223 -62 385 -209 533 -66 68 -103 92 -213 141 -140 61 -277 77 -452 51z m219 -306 c125 -27 222 -113 273 -244 19 -51 23 -78 23 -180 0 -112 -2 -124 -30 -180 -94 -193 -313 -274 -500 -185 -155 74 -236 229 -221 423 13 185 148 342 314 366 81 12 86 12 141 0z" id="svg_7" fill="#023e8a" fill-opacity="1" stroke="none"/>
<path d="M4809 2971 c-256 -60 -472 -278 -525 -531 -23 -110 -14 -341 17 -430 56 -163 172 -300 325 -386 86 -48 161 -71 297 -91 111 -16 123 -16 217 1 159 28 269 78 348 157 48 49 57 72 49 129 -7 51 -39 93 -97 124 -65 36 -98 33 -173 -13 -150 -91 -247 -110 -364 -71 -108 36 -169 84 -225 175 -46 75 -61 138 -56 243 3 85 8 105 37 164 115 231 391 301 611 155 25 -16 61 -32 81 -34 72 -10 171 69 184 147 8 47 -12 96 -56 139 -49 48 -180 107 -278 125 -110 21 -293 19 -392 -3z" id="svg_8" fill="#023e8a" fill-opacity="1" stroke="none"/>
<path d="M6289 2966 c-206 -52 -378 -186 -467 -361 -52 -103 -67 -181 -67 -345 0 -134 3 -165 23 -228 59 -187 170 -322 342 -415 140 -76 313 -103 488 -77 274 41 512 241 588 495 27 88 27 367 1 445 -70 206 -194 351 -382 440 -149 71 -356 89 -526 46z m348 -323 c95 -44 193 -164 214 -264 6 -29 9 -98 7 -154 -5 -121 -31 -187 -104 -265 -139 -149 -381 -153 -526 -9 -58 58 -91 122 -113 223 -15 69 -16 87 -4 154 24 140 102 257 208 312 85 43 229 45 318 3z" id="svg_9" fill="#023e8a" fill-opacity="1" stroke="none"/>
<path d="M8208 2971 c-83 -27 -136 -61 -227 -147 -51 -48 -82 -71 -85 -62 -2 7 -7 41 -9 76 -3 34 -12 74 -21 87 -43 65 -270 58 -309 -9 -16 -27 -22 -786 -9 -1083 10 -231 14 -246 72 -265 46 -15 189 -14 220 2 64 33 60 8 60 407 l0 364 31 60 c60 120 162 196 294 220 127 22 129 23 152 58 20 29 23 47 23 126 0 116 -12 153 -56 171 -43 18 -66 17 -136 -5z" id="svg_10" fill="#023e8a" fill-opacity="1" stroke="none"/>
<path d="M9019 2979 c-76 -8 -173 -36 -240 -70 -77 -38 -112 -115 -90 -197 13 -45 69 -102 103 -102 11 0 66 13 122 30 194 57 355 57 465 -2 73 -38 120 -118 121 -203 l0 -41 -243 4 c-203 4 -255 2 -322 -13 -120 -26 -212 -73 -276 -143 -72 -77 -93 -141 -93 -278 1 -93 3 -105 34 -167 74 -152 210 -238 402 -257 190 -18 350 31 452 139 39 41 51 39 52 -9 2 -48 25 -87 62 -102 41 -16 171 -14 214 5 65 27 63 15 62 517 0 444 -1 457 -23 522 -41 123 -134 239 -232 289 -144 73 -351 102 -570 78z m454 -795 c26 -6 27 -9 27 -68 0 -208 -122 -327 -334 -326 -169 1 -275 105 -245 238 20 91 90 145 205 161 70 10 297 7 347 -5z" id="svg_11" fill="#023e8a" fill-opacity="1" stroke="none"/>
</g></g></svg>