<?xml version="1.0" encoding="utf-8"?>
<svg version="1.0" xmlns="http://www.w3.org/2000/svg" width="2048.000000pt" height="2048.000000pt" viewBox="600 700 857.935 700" preserveAspectRatio="none" xmlns:bx="https://boxy-svg.com"><defs><bx:export><bx:file format="svg" units="pt" path="docora_hospital_tp.svg"/></bx:export></defs><g transform="translate(0.000000,2048.000000) scale(0.100000,-0.100000)" fill="#000000" stroke="none"><path d="M8351 13260 c-153 -41 -321 -148 -412 -262 -51 -65 -110 -182 -141 -278 l-23 -75 0 -845 c0 -791 1 -849 18 -910 89 -313 362 -542 689 -578 l63 -7 3 -45 c5 -71 -18 -266 -43 -367 -28 -109 -94 -279 -134 -344 l-29 -47 72 23 c231 72 496 226 687 401 118 109 102 103 151 58 116 -107 249 -185 395 -233 152 -50 238 -62 494 -68 l236 -6 6 184 c5 204 20 279 81 421 70 162 160 282 289 384 86 67 241 150 339 180 l56 17 -34 46 c-73 95 -124 239 -124 351 0 166 105 360 238 437 l44 26 -5 331 c-4 289 -7 342 -25 417 -95 398 -346 662 -742 781 l-75 23 -1000 2 c-963 2 -1003 1 -1074 -17z m2081 -147 c307 -87 504 -256 618 -532 57 -139 70 -237 70 -530 0 -157 -4 -261 -9 -261 -6 0 -37 -25 -71 -56 -71 -66 -128 -158 -167 -270 -25 -71 -27 -92 -27 -214 0 -134 9 -182 58 -291 5 -13 0 -19 -24 -28 -69 -24 -198 -111 -284 -193 -223 -210 -349 -479 -374 -798 l-7 -85 -155 2 c-175 1 -251 14 -385 65 -100 37 -180 87 -261 161 -81 74 -81 72 -17 152 l56 70 339 5 339 5 29 73 28 72 -408 0 -408 0 -24 -37 c-67 -110 -278 -328 -448 -465 -95 -76 -258 -183 -266 -175 -3 2 4 38 15 78 11 41 25 112 31 159 10 88 14 398 5 422 -4 9 -16 13 -34 10 -54 -8 -242 19 -307 43 -172 65 -309 198 -381 370 -47 112 -47 124 -48 955 l0 785 28 82 c56 165 182 311 330 382 149 72 113 70 1152 68 919 -3 931 -3 1007 -24z" style="fill: rgb(2, 62, 138);"/><path d="M9345 12714 l-25 -27 -2 -281 -3 -281 -293 -5 -294 -5 -24 -28 -24 -28 0 -255 c0 -208 3 -260 15 -284 29 -57 47 -60 345 -60 l270 0 0 -276 0 -276 34 -34 34 -34 251 0 c274 0 293 3 321 55 12 22 15 81 15 294 l0 266 280 5 c201 4 286 9 302 18 49 28 53 52 53 326 l0 256 -29 32 -29 33 -274 0 c-150 1 -281 2 -290 3 -17 2 -18 23 -18 282 l0 281 -25 24 -24 25 -271 0 -271 0 -24 -26z m259 -346 c9 -15 23 -122 40 -312 15 -158 32 -327 38 -375 l11 -86 27 110 c15 61 31 118 35 128 6 15 25 17 191 17 177 0 183 -1 198 -22 13 -19 14 -25 2 -43 -12 -18 -26 -20 -171 -25 l-158 -5 -43 -225 c-51 -268 -59 -297 -83 -305 -24 -7 -49 3 -55 23 -6 18 -22 174 -58 544 -12 131 -24 236 -25 234 -2 -2 -14 -48 -28 -102 -13 -55 -28 -111 -34 -126 l-11 -28 -105 0 c-106 0 -106 0 -132 -30 -20 -25 -32 -30 -68 -30 -37 0 -47 5 -74 35 -35 40 -38 62 -16 105 35 67 111 81 160 30 27 -28 34 -30 102 -30 40 0 73 3 73 7 0 31 105 493 116 511 8 12 23 22 34 22 11 0 26 -10 34 -22z" style="fill: rgb(2, 62, 138);"/><path d="M10896 13251 c70 -38 112 -68 154 -107 l36 -34 334 -3 c269 -3 347 -7 398 -20 356 -94 588 -327 680 -685 15 -61 17 -143 17 -902 0 -777 -1 -841 -19 -915 -21 -95 -66 -207 -115 -290 -34 -56 -165 -205 -181 -205 -4 0 -10 18 -13 39 -7 55 -67 173 -128 254 -62 82 -170 175 -264 228 -225 126 -501 144 -743 48 -190 -76 -348 -227 -434 -416 -54 -120 -70 -201 -75 -392 l-6 -174 589 7 c627 8 680 12 822 60 333 114 594 383 691 711 50 171 51 194 51 1034 0 467 -4 814 -10 856 -25 175 -100 368 -194 499 -101 141 -266 272 -427 342 -193 82 -295 94 -809 94 l-405 0 51 -29z" style="fill: rgb(2, 62, 138);"/><path d="M11379 11596 c-76 -31 -111 -57 -154 -117 -147 -199 -67 -489 158 -581 55 -22 188 -23 248 -3 152 53 259 220 247 386 -10 136 -109 272 -231 317 -81 31 -192 30 -268 -2z" style="fill: rgb(2, 62, 138);"/><path d="M6243 8556 c-18 -8 -42 -30 -53 -48 -20 -32 -20 -49 -20 -778 0 -721 1 -746 20 -777 37 -62 45 -63 398 -63 344 0 423 8 559 54 261 89 455 287 527 537 39 136 41 336 5 474 -78 297 -312 518 -627 592 -97 23 -762 30 -809 9z m741 -306 c186 -47 315 -174 372 -365 25 -82 25 -248 0 -330 -54 -179 -172 -297 -351 -351 -50 -16 -97 -19 -285 -19 l-225 0 -3 543 -2 542 208 0 c176 0 221 -3 286 -20z" style="fill: rgb(2, 62, 138);"/><path d="M9935 8136 c-148 -30 -238 -76 -335 -175 -127 -128 -180 -263 -180 -456 0 -190 53 -327 175 -451 161 -164 421 -230 663 -168 138 35 261 122 277 195 15 66 -44 146 -125 170 -45 14 -54 11 -159 -56 -172 -109 -401 -41 -487 147 -26 56 -29 74 -29 163 0 93 2 105 33 167 94 191 328 256 509 139 77 -50 89 -53 134 -41 80 22 135 104 118 178 -16 72 -114 140 -254 177 -86 22 -255 28 -340 11z" style="fill: rgb(2, 62, 138);"/><path d="M11280 8143 c-291 -38 -495 -215 -554 -480 -94 -424 197 -796 623 -795 107 0 164 11 261 49 173 69 297 195 358 364 34 97 42 276 17 384 -52 226 -224 401 -450 459 -65 17 -199 27 -255 19z m216 -306 c66 -34 137 -113 165 -185 17 -43 22 -79 22 -147 1 -116 -26 -188 -95 -261 -66 -70 -130 -97 -228 -98 -175 -1 -301 117 -331 308 -23 148 50 313 166 374 96 50 214 53 301 9z" style="fill: rgb(2, 62, 138);"/><path d="M8374 8120 c-113 -29 -190 -74 -270 -155 -85 -85 -146 -199 -170 -315 -23 -109 -15 -272 18 -367 90 -255 322 -413 608 -413 375 0 650 271 650 641 0 238 -132 460 -331 557 -46 23 -111 49 -144 57 -85 21 -270 19 -361 -5z m318 -278 c107 -47 178 -147 198 -280 32 -202 -81 -376 -265 -412 -156 -30 -308 57 -366 209 -31 81 -31 214 1 295 25 64 94 147 145 174 90 46 201 52 287 14z" style="fill: rgb(2, 62, 138);"/><path d="M12833 8121 c-69 -25 -131 -69 -191 -137 -27 -30 -52 -52 -55 -47 -2 4 -5 34 -6 66 -3 96 -28 119 -141 124 -85 5 -135 -13 -158 -57 -17 -33 -7 -1092 11 -1128 19 -39 58 -52 151 -52 76 0 87 2 115 26 l31 26 0 316 0 317 29 60 c42 88 110 144 213 176 33 11 75 19 95 19 72 0 103 45 103 152 0 79 -15 135 -40 148 -29 15 -99 11 -157 -9z" style="fill: rgb(2, 62, 138);"/><path d="M13498 8125 c-130 -26 -210 -77 -228 -145 -20 -74 33 -170 94 -170 16 0 62 11 103 25 184 64 381 48 460 -37 31 -33 53 -90 53 -138 l0 -41 -87 8 c-49 4 -149 8 -223 7 -219 -1 -362 -53 -441 -158 -48 -63 -64 -121 -64 -226 1 -71 5 -95 28 -145 64 -138 197 -220 377 -232 150 -10 281 31 361 113 47 48 60 54 52 25 -9 -34 16 -90 47 -106 39 -20 162 -20 200 0 61 32 62 37 58 463 -4 361 -5 391 -25 449 -56 168 -175 268 -365 307 -94 19 -304 20 -400 1z m430 -681 l52 -7 0 -62 c0 -128 -49 -209 -153 -255 -66 -29 -185 -31 -248 -3 -149 66 -139 260 16 317 43 16 236 21 333 10z" style="fill: rgb(2, 62, 138);"/></g></svg>